<?xml version="1.0" encoding="UTF-8" standalone="no"?>
<svg
   width="11.799835"
   height="15.912504"
   viewBox="0 0 177.44113 239.28578"
   version="1.1"
   id="svg1"
   sodipodi:docname="download-fill.svg"
   inkscape:export-filename="download-fill.svg"
   inkscape:export-xdpi="10.76"
   inkscape:export-ydpi="10.76"
   inkscape:version="1.4 (e7c3feb1, 2024-10-09)"
   xmlns:inkscape="http://www.inkscape.org/namespaces/inkscape"
   xmlns:sodipodi="http://sodipodi.sourceforge.net/DTD/sodipodi-0.dtd"
   xmlns="http://www.w3.org/2000/svg"
   xmlns:svg="http://www.w3.org/2000/svg">
  <defs
     id="defs1" />
  <sodipodi:namedview
     id="namedview1"
     pagecolor="#ffffff"
     bordercolor="#000000"
     borderopacity="0.25"
     inkscape:showpageshadow="2"
     inkscape:pageopacity="0.0"
     inkscape:pagecheckerboard="0"
     inkscape:deskcolor="#d1d1d1"
     inkscape:document-units="px"
     inkscape:zoom="34.933999"
     inkscape:cx="8.5303718"
     inkscape:cy="4.7518179"
     inkscape:window-width="1320"
     inkscape:window-height="693"
     inkscape:window-x="0"
     inkscape:window-y="38"
     inkscape:window-maximized="0"
     inkscape:current-layer="svg1" />
  <path
     id="Selection"
     fill="none"
     stroke="black"
     stroke-width="1.12438"
     d="m 56.537185,93.731373 c 0,0 11.141728,9.394437 11.141728,9.394437 0,0 0.03384,-21.199141 0.04511,-31.277419 0,0 -0.04511,-50.279291 -0.04511,-50.279291 C 67.859346,6.8048141 75.854776,-0.01119674 89.116591,1.3805471e-5 102.37841,0.01122434 110.37383,9.0357123 110.53172,21.288837 c 0,0 -0.0113,50.70529 -0.0113,50.70529 0,10.08949 0.0113,31.131683 0.0113,31.131683 0,0 13.53246,-10.089492 13.53246,-10.089492 5.20999,-4.203953 19.45292,-5.605272 27.62878,2.937164 8.17586,8.553638 8.32246,22.712558 1.40963,29.707928 0,0 -48.2094,41.06423 -48.2094,41.06423 -6.901561,5.75101 -11.412381,6.1658 -15.505951,6.44606 -4.09357,0.28027 -9.438892,-0.84078 -15.224021,-6.72632 0,0 -48.773253,-41.61354 -48.773253,-41.61354 -6.067053,-6.45727 -5.209997,-22.42109 3.94697,-29.573412 9.156966,-7.152327 20.298694,-7.712855 27.20025,-1.547055 z M 0.00532085,217.47335 C -0.26532841,203.98707 9.8276337,196.56569 21.476828,196.20696 c 2.255412,0.12332 135.279522,-0.0785 135.279522,-0.0785 11.6492,0.0785 21.06554,8.20612 21.39258,21.34487 0.32703,13.13877 -11.33344,21.04219 -21.39258,21.34489 0,0 -135.347183,0 -135.347183,0 -9.111859,0.40357 -21.12191984,-7.84739 -21.40384615,-21.34489 z"
     style="fill:#fff8e8;fill-opacity:1;stroke:none" />
</svg>
