<?xml version="1.0" encoding="UTF-8" standalone="no"?>
<svg
   width="16.218in"
   height="15.93903in"
   viewBox="0 0 306.00001 300.73641"
   version="1.1"
   id="svg1"
   sodipodi:docname="rewind.svg"
   inkscape:export-filename="rewind.svg"
   inkscape:export-xdpi="96"
   inkscape:export-ydpi="96"
   inkscape:version="1.4 (e7c3feb1, 2024-10-09)"
   xmlns:inkscape="http://www.inkscape.org/namespaces/inkscape"
   xmlns:sodipodi="http://sodipodi.sourceforge.net/DTD/sodipodi-0.dtd"
   xmlns="http://www.w3.org/2000/svg"
   xmlns:svg="http://www.w3.org/2000/svg">
  <defs
     id="defs1" />
  <sodipodi:namedview
     id="namedview1"
     pagecolor="#ffffff"
     bordercolor="#000000"
     borderopacity="0.25"
     inkscape:showpageshadow="2"
     inkscape:pageopacity="0.0"
     inkscape:pagecheckerboard="0"
     inkscape:deskcolor="#d1d1d1"
     inkscape:document-units="px"
     showborder="false"
     inkscape:zoom="0.32094179"
     inkscape:cx="1229.1949"
     inkscape:cy="806.99993"
     inkscape:window-width="1288"
     inkscape:window-height="795"
     inkscape:window-x="122"
     inkscape:window-y="44"
     inkscape:window-maximized="0"
     inkscape:current-layer="svg1" />
  <path
     id="path1 copy"
     fill="none"
     stroke="#000000"
     stroke-width="1"
     d="m 63.180001,169.71 c 0,0 103.409999,124.09 103.409999,124.09 17.27,14.64 44.33,2.74 44.33,-19.48 0,0 0.58,-40.07 0.58,-40.07 0,0 49.75,59.5 49.75,59.5 13,13 44.25,5 44.25,-19.25 0,0 0,-248.5 0,-248.5 0,-13.5 -10.25,-25 -26.75,-25.25 0,0 -10.25,-1 -17.5,5.5 0,0 -50.33,60.29 -50.33,60.29 0,0 0,-40.4 0,-40.4 0,0 0,0.38 0,0.37 0,-14.28 -11.97,-25.87 -26.74,-25.87 -6.74,0 -13.43,1.86 -17.61,6.02 0,0 -103.369999,124.09 -103.369999,124.09 -6.54,8.25 -9.14,11.71 -9.14,19.48 0,7.77 2.94,12.77 9.12,19.48 z m -12.68,104.54 c 0.12,11.86 -12.64,25.23 -25,25.62 -13.43,0.44 -24.94000047,-11.98 -25.00000047,-25.62 0,0 0.12,-248.37 0.12,-248.38 C 0.75000053,11.75 10.620001,0.5 25.500001,0.5 c 14.88,0 25,11.13 25,25.75 z"
     style="fill:#fff8e8;fill-opacity:1;stroke:none" />
</svg>
