<?xml version="1.0" encoding="UTF-8" standalone="no"?>
<!-- Created with Inkscape (http://www.inkscape.org/) -->

<svg
   width="793.70081"
   height="1122.5197"
   viewBox="0 0 210 296.99999"
   version="1.1"
   id="svg1"
   xmlns:inkscape="http://www.inkscape.org/namespaces/inkscape"
   xmlns:sodipodi="http://sodipodi.sourceforge.net/DTD/sodipodi-0.dtd"
   xmlns="http://www.w3.org/2000/svg"
   xmlns:svg="http://www.w3.org/2000/svg">
  <sodipodi:namedview
     id="namedview1"
     pagecolor="#ffffff"
     bordercolor="#000000"
     borderopacity="0.25"
     inkscape:showpageshadow="2"
     inkscape:pageopacity="0.0"
     inkscape:pagecheckerboard="0"
     inkscape:deskcolor="#d1d1d1"
     inkscape:document-units="px">
    <inkscape:page
       x="0"
       y="0"
       width="210"
       height="297"
       id="page2"
       margin="0"
       bleed="0" />
  </sodipodi:namedview>
  <defs
     id="defs1" />
  <g
     inkscape:label="Layer 1"
     inkscape:groupmode="layer"
     id="layer1">
    <path
       fill="#333"
       d="M 2.3192969,10.044694 H 1.9962442 c -0.2176282,0 -0.3957718,0.178111 -0.3957718,0.395739 v 4.880348 c 0,0.217628 0.1780775,0.395805 0.3957718,0.395805 h 0.3230527 z m 12.4252441,0 h 0.323053 c 0.217628,0 0.395772,0.178111 0.395772,0.395739 v 4.880348 c 0,0.217628 -0.178078,0.395805 -0.395772,0.395805 h -0.323053 z"
       id="path1"
       style="fill:#470a63;fill-opacity:1;stroke-width:0.0330692" />
    <path
       fill="#4d4d4d"
       d="M 1.6004724,14.054166 V 11.42639 C 1.4308606,10.98872 1.3685252,10.408125 1.3561574,9.7607624 H 0.79374998 C 0.91994193,11.975306 1.1074441,13.495793 1.6004724,14.054166 Z m 13.8628936,0 V 11.42639 c 0.169611,-0.43767 0.231947,-1.018265 0.244315,-1.6656276 h 0.56244 c -0.126225,2.2145436 -0.313727,3.7350306 -0.806755,4.2934036 z"
       id="path2"
       style="fill:#7a3995;fill-opacity:1;stroke-width:0.0330692" />
    <path
       fill="#1a1a1a"
       d="m 12.579833,9.1123753 h -0.40179 c -0.371334,0 -0.67514,0.3038726 -0.67514,0.6752063 v 6.1860844 c 0,0.371367 0.303806,0.675173 0.67514,0.675173 h 0.40179 z m -8.095762,0 h 0.4017242 c 0.3713337,0 0.6752061,0.3038726 0.6752061,0.6752063 v 6.1860844 c 0,0.371367 -0.3038724,0.675173 -0.6752061,0.675173 H 4.484071 Z"
       id="path3"
       style="stroke-width:0.0330692" />
    <path
       fill="#4D4D4D"
       d="m 12.930631,8.8279143 h 0.586052 c 0.595113,0 1.227858,0.4872742 1.227858,1.0823869 v 5.9406778 c 0,0.59508 -0.632514,1.082354 -1.227858,1.082354 h -0.586052 c -0.192958,0 -0.350798,-0.157872 -0.350798,-0.350798 V 9.1787121 c 0,-0.1929587 0.158203,-0.3507978 0.350798,-0.3507978 z m -8.7973909,0 H 3.5471552 c -0.5951128,0 -1.2278583,0.4872742 -1.2278583,1.0823869 v 5.9406778 c 0,0.59508 0.6325471,1.082354 1.2278583,1.082354 h 0.5860849 c 0.1929254,0 0.3508309,-0.157872 0.3508309,-0.350798 V 9.1787121 c 0,-0.1929587 -0.1582693,-0.3507978 -0.3508309,-0.3507978 z"
       id="path4"
       style="fill:#7a3995;fill-opacity:1;stroke-width:0.0330692" />
    <path
       fill="#1a1a1a"
       d="M 8.5259832,1.7087505 C 3.730259,1.7121897 0.95390397,5.1819722 1.2395885,9.7607624 H 0.93039179 C 0.36305711,4.6562054 2.8776037,-0.00158692 8.5342835,4.0370827e-7 14.188946,0.00162079 16.700583,4.6581895 16.133446,9.7607624 H 15.82425 C 16.110496,5.1769787 13.326039,1.7053444 8.5259832,1.7087505 Z"
       id="path5"
       style="stroke-width:0.0330692" />
    <path
       fill="#666"
       fill-rule="nonzero"
       d="M 13.417674,8.8279143 V 16.933333 H 13.125342 V 8.8279143 Z m -9.4791453,0 V 16.933333 H 3.6461641 V 8.8279143 Z"
       id="path6"
       style="fill:#cb8dff;fill-opacity:1;stroke-width:0.0330692" />
  </g>
</svg>
