<?xml version="1.0" encoding="UTF-8" standalone="no"?>
<!DOCTYPE svg PUBLIC "-//W3C//DTD SVG 20010904//EN"
              "http://www.w3.org/TR/2001/REC-SVG-20010904/DTD/svg10.dtd">

<svg xmlns="http://www.w3.org/2000/svg"
     width="62.4339mm" height="62.4339mm"
     viewBox="0 0 177 177">
  <path id="HCLogo"
        fill="#460c61" stroke="black" stroke-width="1"
        d="M 79.00,1.21
           C 79.00,1.21 90.00,1.21 90.00,1.21
             100.56,1.02 111.15,3.29 121.00,7.06
             130.51,10.70 140.65,17.01 148.00,24.04
             181.50,56.04 186.31,109.24 155.70,145.00
             147.08,155.07 137.87,162.01 126.00,167.74
             112.90,174.07 99.40,176.16 85.00,176.00
             76.96,175.90 67.63,173.84 60.00,171.33
             11.89,155.48 -11.28,101.25 7.45,55.00
             20.18,23.58 46.39,6.35 79.00,1.21 Z
           M 83.00,38.00
           C 83.00,38.00 35.00,38.00 35.00,38.00
             35.00,38.00 35.00,45.00 35.00,45.00
             40.34,45.76 44.84,46.61 47.35,52.02
             49.60,56.86 49.00,66.46 49.00,72.00
             49.00,72.00 49.00,113.00 49.00,113.00
             48.98,123.86 47.66,131.37 35.00,132.00
             35.00,132.00 35.00,139.00 35.00,139.00
             35.00,139.00 83.00,139.00 83.00,139.00
             83.00,139.00 83.00,132.00 83.00,132.00
             66.32,131.07 69.00,113.39 69.00,101.00
             69.00,101.00 108.00,101.00 108.00,101.00
             108.00,113.39 110.68,131.07 94.00,132.00
             94.00,132.00 94.00,139.00 94.00,139.00
             94.00,139.00 142.00,139.00 142.00,139.00
             142.00,139.00 142.00,132.00 142.00,132.00
             129.87,131.40 128.02,124.66 128.00,114.00
             128.00,114.00 128.00,73.00 128.00,73.00
             128.00,67.32 127.36,56.94 129.65,52.02
             132.16,46.61 136.66,45.76 142.00,45.00
             142.00,45.00 142.00,38.00 142.00,38.00
             142.00,38.00 94.00,38.00 94.00,38.00
             94.00,38.00 94.00,45.00 94.00,45.00
             108.44,47.09 107.99,58.07 108.00,70.00
             108.00,70.00 69.00,70.00 69.00,70.00
             69.01,58.07 68.56,47.09 83.00,45.00
             83.00,45.00 83.00,38.00 83.00,38.00 Z
           M 69.00,73.00
           C 69.00,73.00 108.00,73.00 108.00,73.00
             108.00,73.00 108.00,77.00 108.00,77.00
             108.00,77.00 69.00,77.00 69.00,77.00
             69.00,77.00 69.00,73.00 69.00,73.00 Z
           M 69.00,80.00
           C 69.00,80.00 108.00,80.00 108.00,80.00
             108.00,80.00 108.00,84.00 108.00,84.00
             108.00,84.00 69.00,84.00 69.00,84.00
             69.00,84.00 69.00,80.00 69.00,80.00 Z
           M 69.00,87.00
           C 69.00,87.00 108.00,87.00 108.00,87.00
             108.00,87.00 108.00,91.00 108.00,91.00
             108.00,91.00 69.00,91.00 69.00,91.00
             69.00,91.00 69.00,87.00 69.00,87.00 Z
           M 69.00,94.00
           C 69.00,94.00 108.00,94.00 108.00,94.00
             108.00,94.00 108.00,98.00 108.00,98.00
             108.00,98.00 69.00,98.00 69.00,98.00
             69.00,98.00 69.00,94.00 69.00,94.00 Z" />
</svg>
