<?xml version="1.0" encoding="UTF-8" standalone="no"?>
<svg
   width="17.244293"
   height="15.912504"
   viewBox="0 0 17.244293 15.912504"
   version="1.1"
   id="svg3"
   sodipodi:docname="volume-down-fill.svg"
   inkscape:version="1.4 (e7c3feb1, 2024-10-09)"
   xmlns:inkscape="http://www.inkscape.org/namespaces/inkscape"
   xmlns:sodipodi="http://sodipodi.sourceforge.net/DTD/sodipodi-0.dtd"
   xmlns="http://www.w3.org/2000/svg"
   xmlns:svg="http://www.w3.org/2000/svg">
  <defs
     id="defs3" />
  <sodipodi:namedview
     id="namedview3"
     pagecolor="#ffffff"
     bordercolor="#000000"
     borderopacity="0.25"
     inkscape:showpageshadow="2"
     inkscape:pageopacity="0.0"
     inkscape:pagecheckerboard="0"
     inkscape:deskcolor="#d1d1d1"
     inkscape:zoom="20.092899"
     inkscape:cx="9.0828109"
     inkscape:cy="6.1962189"
     inkscape:window-width="1104"
     inkscape:window-height="812"
     inkscape:window-x="0"
     inkscape:window-y="38"
     inkscape:window-maximized="0"
     inkscape:current-layer="svg3" />
  <path
     fill="#fff8e8"
     d="M 10.202801,12.168697 A 5.9572604,5.9572604 0 0 0 11.947617,7.9562521 5.9572604,5.9572604 0 0 0 10.202801,3.7438072 L 9.2668494,4.6797589 A 4.6334247,4.6334247 0 0 1 10.623781,7.9562521 4.6334247,4.6334247 0 0 1 9.2668494,11.232746 Z M 7.5683684,2.0651836 a 0.66191781,0.66191781 0 0 1 0.3746453,0.595726 V 13.251594 A 0.66191781,0.66191781 0 0 1 6.8680591,13.76789 L 3.7398356,11.265842 H 0.66191781 A 0.66191781,0.66191781 0 0 1 0,10.603923 V 5.308581 A 0.66191781,0.66191781 0 0 1 0.66191781,4.6466631 H 3.7398356 L 6.8680591,2.1446137 a 0.66191781,0.66191781 0 0 1 0.7003093,-0.079431"
     id="path3"
     style="stroke-width:1.32383" />
</svg>
